<svg xmlns="http://www.w3.org/2000/svg" xmlns:svgjs="http://svgjs.com/svgjs" xmlns:xlink="http://www.w3.org/1999/xlink" width="288" height="288"><svg xmlns="http://www.w3.org/2000/svg" width="288" height="288" enable-background="new 0 0 45.7 45.7" viewBox="0 0 45.7 45.7"><path fill="#8e43f0" d="M37.163,14.74h-9.331l8.749-7.057c0.562-0.591,0.859-1.368,0.836-2.189
		c-0.023-0.82-0.364-1.582-0.959-2.146l-2.625-2.499C33.258,0.302,32.504,0,31.71,0c-0.848,0-1.637,0.341-2.244,0.984l-5.924,8.152
		c-0.324,0.446-0.869,0.46-1.216,0.03l-6.462-8.012c-0.567-0.541-1.312-0.838-2.098-0.838l-0.091,0.001
		c-0.82,0.024-1.582,0.365-2.146,0.959l-2.5,2.626C8.482,4.478,8.18,5.232,8.18,6.026c0,0.847,0.341,1.636,0.984,2.244l8.904,6.47
		h-9.53c-2.206,0-4,1.794-4,4v5c0,2.206,1.794,4,4,4h0.321C8.208,28.452,7.8,29.39,7.8,30.429V41.7c0,2.206,1.794,4,4,4h8
		c1.227,0,2.312-0.566,3.046-1.438c0.734,0.872,1.82,1.438,3.046,1.438h8c2.206,0,4-1.794,4-4V30.43
		c0-1.039-0.407-1.978-1.059-2.689h0.329c2.206,0,4-1.795,4-4v-5C41.163,16.534,39.369,14.74,37.163,14.74z M23.919,12.172
		c0.01-0.302,0.113-0.559,0.328-0.789l6.633-9.125c0.217-0.227,0.511-0.352,0.828-0.352c0.303,0,0.591,0.116,0.812,0.326
		l2.626,2.496c0.467,0.445,0.499,1.175,0.096,1.604l-8.862,7.149c-0.425,0.443-1.187,0.456-1.642,0.025l-0.469-0.445
		c-0.213-0.203-0.341-0.483-0.355-0.786C23.917,12.246,23.921,12.216,23.919,12.172z M23.279,15.736
		c-0.154,0.135-0.296,0.28-0.428,0.437c-0.133-0.158-0.276-0.304-0.432-0.439C22.705,15.734,22.995,15.735,23.279,15.736z
		 M10.087,6.028c0-0.303,0.116-0.591,0.326-0.812l2.496-2.626c0.225-0.235,0.538-0.37,0.861-0.37c0.291,0,0.563,0.106,0.744,0.274
		l7.149,8.863c0.213,0.204,0.333,0.473,0.342,0.801c-0.003,0.038-0.007,0.075-0.006,0.094c-0.018,0.293-0.125,0.551-0.31,0.746
		l-0.445,0.469c-0.217,0.227-0.507,0.356-0.854,0.367c-0.299,0-0.576-0.112-0.826-0.346l-9.125-6.632
		C10.212,6.639,10.087,6.345,10.087,6.028z M6.538,23.74v-5c0-1.103,0.897-2,2-2h11.271c1.103,0,2,0.897,2,2v5c0,1.103-0.897,2-2,2
		H8.538C7.435,25.74,6.538,24.843,6.538,23.74z M21.8,41.701c0,1.103-0.897,2-2,2h-8c-1.103,0-2-0.897-2-2V30.43
		c0-1.103,0.897-2,2-2h8c1.103,0,2,0.897,2,2V41.701z M35.893,41.701c0,1.103-0.897,2-2,2h-8c-1.103,0-2-0.897-2-2V30.43
		c0-1.103,0.897-2,2-2h8c1.103,0,2,0.897,2,2V41.701z M39.163,23.74c0,1.103-0.897,2-2,2h-11.27c-1.103,0-2-0.897-2-2v-5
		c0-1.103,0.897-2,2-2h11.271c1.103,0,2,0.897,2,2L39.163,23.74L39.163,23.74z" class="color030104 svgShape"/></svg></svg>