<svg width="40" height="40" viewBox="0 0 56 56"><g fill="#8e43f0" fill-rule="evenodd" class="color000 svgShape"><path d="M28 40.618c1.51-.122 3.024-.21 4.53-.375 1.71-.186 3.373-.582 4.9-1.407 1.36-.734 2.357-1.765 2.707-3.312.285-1.257.63-2.503.856-3.77.494-2.76.935-5.53 1.384-8.298.092-.57-.038-1.138-.492-1.504-.663-.533-1.348-1.075-2.107-1.448-1.872-.918-3.91-1.342-5.961-1.634-2.897-.413-5.811-.542-8.738-.308-2.526.202-5.024.546-7.432 1.357-1.252.422-2.473.923-3.433 1.876-.41.407-.672.892-.604 1.474.146 1.265.267 2.536.504 3.786.512 2.707 1.083 5.403 1.644 8.1.242 1.166.744 2.189 1.709 2.962 1.117.895 2.42 1.389 3.784 1.732 2.21.555 4.474.672 6.748.77m.148-23.514c2.773-.026 5.648.233 8.476.856 2.005.442 3.956 1.047 5.694 2.205 1.397.932 1.857 2.157 1.558 3.78-.493 2.67-.876 5.36-1.368 8.031a50.72 50.72 0 01-1.021 4.367c-.606 2.185-2.244 3.408-4.266 4.206-2.243.885-4.606 1.216-6.997 1.265-2.049.043-4.107.022-6.15-.124-2.386-.17-4.716-.643-6.819-1.887-1.623-.96-2.574-2.36-2.952-4.173-.4-1.918-.872-3.823-1.216-5.75a133.008 133.008 0 01-1.07-7.035c-.137-1.117.604-1.9 1.442-2.541 1.303-.996 2.822-1.552 4.387-1.978 3.488-.948 6.817-1.233 10.302-1.222" class="color000 svgShape"/><path d="M28.123 20.071c3.128.056 6.372.264 9.487 1.315a9.793 9.793 0 012.354 1.158c1.183.805 1.158 1.82.016 2.694-.986.755-2.15 1.139-3.335 1.452-3.153.834-6.377 1.058-9.624.984-2.808-.064-5.6-.319-8.293-1.173-.818-.26-1.59-.666-2.375-1.022-.179-.08-.333-.223-.485-.352-.955-.811-.952-1.726.03-2.51 1.086-.868 2.391-1.27 3.713-1.609 2.747-.701 5.554-.902 8.512-.937" class="color000 svgShape"/><path fill-rule="nonzero" d="M33.84 30.706c-.57-.143-1.11.094-1.389.624-.321.61-.79.939-1.475.992-2.315.18-4.092.189-5.842-.03-.793-.1-1.31-.404-1.69-1.093-.333-.603-1.095-.777-1.728-.385-.548.339-.634.841-.193 1.502.387.578.344 1.09-.013 1.676-.178.293-.275.565-.267.713.03.532.358.863.996.976.484.086.992-.178 1.3-.705.255-.435.644-.802 1.125-.88 1.875-.305 3.831-.314 6.09-.082.767.078 1.294.411 1.662 1.099.312.582 1.108.766 1.731.387.506-.307.687-1.112.322-1.449-.59-.545-.602-1.353.123-1.835.03-.02.074-.081.115-.185.052-.131.08-.274.09-.372-.084-.499-.403-.813-.958-.953zm1.195 2.176c-.276.184-.242.38-.023.582.863.796.38 2.216-.45 2.72-.983.597-2.305.326-2.851-.693-.249-.465-.551-.632-1.039-.681-1.964-.202-3.926-.242-5.88.076-.212.034-.44.286-.562.494-.465.794-1.291 1.237-2.13 1.089-.959-.17-1.603-.772-1.656-1.72-.021-.387.172-.826.383-1.173.187-.307.24-.502.031-.816-.688-1.03-.505-2.044.437-2.626.996-.617 2.28-.351 2.849.678.265.48.583.622 1.09.686 1.895.237 3.785.174 5.68.026.412-.032.638-.204.83-.567a1.99 1.99 0 012.29-1.026c.85.213 1.455.783 1.568 1.698 0 0-.033.898-.567 1.253z" class="color000 svgShape"/><path fill-rule="nonzero" d="M28 55.5C12.812 55.5.5 43.188.5 28S12.812.5 28 .5 55.5 12.812 55.5 28 43.188 55.5 28 55.5zm0-3c13.531 0 24.5-10.969 24.5-24.5S41.531 3.5 28 3.5 3.5 14.469 3.5 28 14.469 52.5 28 52.5z" class="color000 svgShape"/></g></svg>