<svg xmlns="http://www.w3.org/2000/svg" width="40" height="40" enable-background="new 0 0 512 512" viewBox="0 0 512 512"><path fill="#8e43f0" d="M486.881,238.363c13.851,0,25.119-11.268,25.119-25.119V59.324c0-13.851-11.268-25.119-25.119-25.119H238.363v-9.086C238.363,11.268,227.095,0,213.244,0H59.324C45.473,0,34.205,11.268,34.205,25.119v9.086h-9.086C11.268,34.205,0,45.473,0,59.324v153.921c0,13.851,11.268,25.119,25.119,25.119h103.148v35.273H59.324c-13.851,0-25.119,11.268-25.119,25.119v9.086h-9.086C11.268,307.841,0,319.11,0,332.96v153.921C0,500.732,11.268,512,25.119,512h461.762C500.732,512,512,500.732,512,486.881V332.96c0-13.851-11.268-25.119-25.119-25.119H238.363v-9.086c0-13.851-11.268-25.119-25.119-25.119h-68.944v-35.273H486.881zM238.363,179.04V50.238h248.518c5.01,0,9.086,4.076,9.086,9.086v153.921c0,5.01-4.076,9.086-9.086,9.086h-342.58v-18.171h68.944C227.095,204.159,238.363,192.89,238.363,179.04z M25.119,222.33c-5.01,0-9.086-4.076-9.086-9.086V59.324c0-5.01,4.076-9.086,9.086-9.086h9.086V179.04c0,13.851,11.268,25.119,25.119,25.119h68.944v18.171H25.119z M238.363,452.676V323.875h248.518c5.01,0,9.086,4.076,9.086,9.086v153.921c0,5.01-4.076,9.086-9.086,9.086H25.119c-5.01,0-9.086-4.076-9.086-9.086V332.96c0-5.01,4.076-9.086,9.086-9.086h9.086v128.802c0,13.851,11.268,25.119,25.119,25.119h153.921C227.095,477.795,238.363,466.527,238.363,452.676z M213.244,289.67c5.01,0,9.086,4.076,9.086,9.086v153.921c0,5.01-4.076,9.086-9.086,9.086H59.324c-5.01,0-9.086-4.076-9.086-9.086V298.756c0-5.01,4.076-9.086,9.086-9.086H213.244zM59.324,188.125c-5.01,0-9.086-4.076-9.086-9.086V25.119c0-5.01,4.076-9.086,9.086-9.086h153.921c5.01,0,9.086,4.076,9.086,9.086V179.04c0,5.01-4.076,9.086-9.086,9.086H59.324z" class="color000 svgShape"/><path fill="#8e43f0" d="M187.056 93.528c0-27.995-22.777-50.772-50.772-50.772-27.995 0-50.772 22.777-50.772 50.772v17.102c0 27.995 22.777 50.772 50.772 50.772 11.111 0 21.392-3.597 29.761-9.675l7.326 7.326c1.565 1.565 3.617 2.348 5.668 2.348s4.103-.782 5.668-2.348c3.131-3.131 3.131-8.207 0-11.337l-7.326-7.326c6.078-8.369 9.675-18.65 9.675-29.761V93.528zM171.023 110.63c0 6.68-1.899 12.921-5.18 18.222l-6.789-6.789c-3.131-3.131-8.207-3.131-11.337 0-3.131 3.131-3.131 8.207 0 11.337l6.789 6.789c-5.302 3.28-11.543 5.18-18.222 5.18-19.155 0-34.739-15.584-34.739-34.739V93.528c0-19.155 15.584-34.739 34.739-34.739 19.155 0 34.739 15.584 34.739 34.739V110.63zM186.818 425.079l-23.225-92.899c-2.325-9.295-10.64-15.788-20.222-15.788h-14.175c-9.582 0-17.898 6.492-20.22 15.789L85.751 425.08c-1.074 4.295 1.538 8.646 5.833 9.721 4.293 1.076 8.647-1.537 9.722-5.833l4.896-19.581h60.167l4.896 19.581c.911 3.643 4.179 6.075 7.771 6.075.643 0 1.298-.078 1.951-.242C185.281 433.727 187.892 429.373 186.818 425.079zM110.208 393.353l14.321-57.284c.537-2.145 2.455-3.643 4.667-3.643h14.175c2.212 0 4.13 1.497 4.667 3.643l14.321 57.284H110.208zM427.023 76.96H273.102c-4.427 0-8.017 3.589-8.017 8.017s3.589 8.017 8.017 8.017h153.921c4.427 0 8.017-3.589 8.017-8.017S431.45 76.96 427.023 76.96zM461.228 145.37H273.102c-4.427 0-8.017 3.589-8.017 8.017s3.589 8.017 8.017 8.017h188.125c4.427 0 8.017-3.589 8.017-8.017S465.655 145.37 461.228 145.37zM461.228 179.574H273.102c-4.427 0-8.017 3.589-8.017 8.017s3.589 8.017 8.017 8.017h188.125c4.427 0 8.017-3.589 8.017-8.017S465.655 179.574 461.228 179.574zM307.307 111.165h-34.205c-4.427 0-8.017 3.589-8.017 8.017s3.589 8.017 8.017 8.017h34.205c4.427 0 8.017-3.589 8.017-8.017S311.734 111.165 307.307 111.165zM461.228 111.165H341.511c-4.427 0-8.017 3.589-8.017 8.017s3.589 8.017 8.017 8.017h119.716c4.427 0 8.017-3.589 8.017-8.017S465.655 111.165 461.228 111.165zM427.023 350.597H273.102c-4.427 0-8.017 3.589-8.017 8.017s3.589 8.017 8.017 8.017h153.921c4.427 0 8.017-3.589 8.017-8.017S431.45 350.597 427.023 350.597zM461.228 419.006H273.102c-4.427 0-8.017 3.589-8.017 8.017 0 4.427 3.589 8.017 8.017 8.017h188.125c4.427 0 8.017-3.589 8.017-8.017C469.244 422.596 465.655 419.006 461.228 419.006zM461.228 453.211H273.102c-4.427 0-8.017 3.589-8.017 8.017 0 4.427 3.589 8.017 8.017 8.017h188.125c4.427 0 8.017-3.589 8.017-8.017C469.244 456.8 465.655 453.211 461.228 453.211zM307.307 384.802h-34.205c-4.427 0-8.017 3.589-8.017 8.017 0 4.427 3.589 8.017 8.017 8.017h34.205c4.427 0 8.017-3.589 8.017-8.017C315.324 388.391 311.734 384.802 307.307 384.802zM461.228 384.802H341.511c-4.427 0-8.017 3.589-8.017 8.017 0 4.427 3.589 8.017 8.017 8.017h119.716c4.427 0 8.017-3.589 8.017-8.017C469.244 388.391 465.655 384.802 461.228 384.802z" class="color000 svgShape"/></svg>